<svg width="118" height="29" viewBox="0 0 118 29" fill="none" xmlns="http://www.w3.org/2000/svg">
<path d="M114.833 0H3.16686C1.41785 0 0 1.23751 0 2.76405V26.236C0 27.7625 1.41785 29 3.16686 29H114.833C116.582 29 118 27.7625 118 26.236V2.76405C118 1.23751 116.582 0 114.833 0Z" fill="#262E3B"/>
<path d="M47.4229 9.99854C47.4229 11.2948 47.063 12.2866 46.3433 12.9741C45.6235 13.658 44.5869 14 43.2334 14H41.0366V6.14746H43.4644C44.714 6.14746 45.6862 6.48405 46.3809 7.15723C47.0755 7.8304 47.4229 8.77751 47.4229 9.99854ZM46.0693 10.0415C46.0693 8.16162 45.1903 7.22168 43.4321 7.22168H42.3203V12.9204H43.2334C45.124 12.9204 46.0693 11.9608 46.0693 10.0415ZM52.6973 14L52.4448 13.1729H52.4019C52.1154 13.5345 51.8271 13.7816 51.5371 13.9141C51.2471 14.043 50.8747 14.1074 50.4199 14.1074C49.8363 14.1074 49.3797 13.9499 49.0503 13.6348C48.7244 13.3197 48.5615 12.8739 48.5615 12.2974C48.5615 11.6851 48.7889 11.2231 49.2437 10.9116C49.6984 10.6001 50.3913 10.43 51.3223 10.4014L52.3481 10.3691V10.0522C52.3481 9.67269 52.2586 9.38981 52.0796 9.20361C51.9041 9.01383 51.6302 8.91895 51.2578 8.91895C50.9535 8.91895 50.6616 8.9637 50.3823 9.05322C50.103 9.14274 49.8345 9.24837 49.5767 9.37012L49.1685 8.46777C49.4907 8.29948 49.8434 8.17236 50.2266 8.08643C50.6097 7.99691 50.9714 7.95215 51.3115 7.95215C52.0671 7.95215 52.6364 8.11686 53.0195 8.44629C53.4062 8.77572 53.5996 9.29313 53.5996 9.99854V14H52.6973ZM50.8174 13.1406C51.2757 13.1406 51.6427 13.0135 51.9185 12.7593C52.1978 12.5015 52.3374 12.1416 52.3374 11.6797V11.1641L51.5747 11.1963C50.9803 11.2178 50.547 11.318 50.2749 11.4971C50.0063 11.6725 49.8721 11.9429 49.8721 12.3081C49.8721 12.5731 49.9508 12.779 50.1084 12.9258C50.266 13.069 50.5023 13.1406 50.8174 13.1406ZM57.5742 13.0869C57.8822 13.0869 58.1901 13.0386 58.498 12.9419V13.8926C58.3584 13.9535 58.1776 14.0036 57.9556 14.043C57.7371 14.0859 57.5098 14.1074 57.2734 14.1074C56.0775 14.1074 55.4795 13.4772 55.4795 12.2168V9.01562H54.6685V8.45703L55.5386 7.99512L55.9683 6.73828H56.7471V8.05957H58.439V9.01562H56.7471V12.1953C56.7471 12.4997 56.8223 12.7253 56.9727 12.8721C57.1266 13.0153 57.3271 13.0869 57.5742 13.0869ZM63.4072 14L63.1548 13.1729H63.1118C62.8254 13.5345 62.5371 13.7816 62.2471 13.9141C61.957 14.043 61.5846 14.1074 61.1299 14.1074C60.5462 14.1074 60.0897 13.9499 59.7603 13.6348C59.4344 13.3197 59.2715 12.8739 59.2715 12.2974C59.2715 11.6851 59.4989 11.2231 59.9536 10.9116C60.4084 10.6001 61.1012 10.43 62.0322 10.4014L63.0581 10.3691V10.0522C63.0581 9.67269 62.9686 9.38981 62.7896 9.20361C62.6141 9.01383 62.3402 8.91895 61.9678 8.91895C61.6634 8.91895 61.3716 8.9637 61.0923 9.05322C60.813 9.14274 60.5444 9.24837 60.2866 9.37012L59.8784 8.46777C60.2007 8.29948 60.5534 8.17236 60.9365 8.08643C61.3197 7.99691 61.6813 7.95215 62.0215 7.95215C62.777 7.95215 63.3464 8.11686 63.7295 8.44629C64.1162 8.77572 64.3096 9.29313 64.3096 9.99854V14H63.4072ZM61.5273 13.1406C61.9857 13.1406 62.3527 13.0135 62.6284 12.7593C62.9077 12.5015 63.0474 12.1416 63.0474 11.6797V11.1641L62.2847 11.1963C61.6903 11.2178 61.257 11.318 60.9849 11.4971C60.7163 11.6725 60.582 11.9429 60.582 12.3081C60.582 12.5731 60.6608 12.779 60.8184 12.9258C60.9759 13.069 61.2122 13.1406 61.5273 13.1406ZM73.5908 11.8677C73.5908 12.5659 73.3384 13.1138 72.8335 13.5112C72.3286 13.9087 71.6322 14.1074 70.7441 14.1074C69.8561 14.1074 69.1292 13.9696 68.5635 13.6938V12.48C68.9215 12.6483 69.3011 12.7808 69.7021 12.8774C70.1068 12.9741 70.4827 13.0225 70.8301 13.0225C71.3385 13.0225 71.7127 12.9258 71.9526 12.7324C72.1961 12.5391 72.3179 12.2795 72.3179 11.9536C72.3179 11.66 72.2069 11.4111 71.9849 11.207C71.7629 11.0029 71.3045 10.7612 70.6099 10.4819C69.8937 10.1919 69.3888 9.86068 69.0952 9.48828C68.8016 9.11589 68.6548 8.66829 68.6548 8.14551C68.6548 7.49023 68.8875 6.97461 69.353 6.59863C69.8185 6.22266 70.4434 6.03467 71.2275 6.03467C71.9795 6.03467 72.7279 6.19938 73.4727 6.52881L73.0645 7.57617C72.3662 7.28255 71.7432 7.13574 71.1953 7.13574C70.7799 7.13574 70.4648 7.22705 70.25 7.40967C70.0352 7.5887 69.9277 7.82682 69.9277 8.12402C69.9277 8.32812 69.9707 8.50358 70.0566 8.65039C70.1426 8.79362 70.284 8.92969 70.481 9.05859C70.6779 9.1875 71.0324 9.35758 71.5444 9.56885C72.1209 9.80876 72.5435 10.0326 72.812 10.2402C73.0806 10.4479 73.2775 10.6825 73.4028 10.9438C73.5282 11.2052 73.5908 11.5132 73.5908 11.8677ZM77.1895 13.0869C77.4974 13.0869 77.8053 13.0386 78.1133 12.9419V13.8926C77.9736 13.9535 77.7928 14.0036 77.5708 14.043C77.3524 14.0859 77.125 14.1074 76.8887 14.1074C75.6927 14.1074 75.0947 13.4772 75.0947 12.2168V9.01562H74.2837V8.45703L75.1538 7.99512L75.5835 6.73828H76.3623V8.05957H78.0542V9.01562H76.3623V12.1953C76.3623 12.4997 76.4375 12.7253 76.5879 12.8721C76.7419 13.0153 76.9424 13.0869 77.1895 13.0869ZM84.5747 11.019C84.5747 11.9894 84.3258 12.7467 83.8281 13.291C83.3304 13.8353 82.6375 14.1074 81.7495 14.1074C81.1945 14.1074 80.7039 13.9821 80.2778 13.7314C79.8517 13.4808 79.5241 13.1209 79.2949 12.6519C79.0658 12.1828 78.9512 11.6385 78.9512 11.019C78.9512 10.0558 79.1982 9.30387 79.6924 8.76318C80.1865 8.22249 80.883 7.95215 81.7817 7.95215C82.6411 7.95215 83.3215 8.22965 83.8228 8.78467C84.3241 9.3361 84.5747 10.0809 84.5747 11.019ZM80.251 11.019C80.251 12.3905 80.7576 13.0762 81.771 13.0762C82.7736 13.0762 83.2749 12.3905 83.2749 11.019C83.2749 9.66195 82.77 8.9834 81.7603 8.9834C81.2303 8.9834 80.8454 9.15885 80.6055 9.50977C80.3691 9.86068 80.251 10.3638 80.251 11.019ZM89.0435 7.95215C89.2977 7.95215 89.5072 7.97005 89.6719 8.00586L89.5483 9.18213C89.3693 9.13916 89.1831 9.11768 88.9897 9.11768C88.4849 9.11768 88.0749 9.28239 87.7598 9.61182C87.4482 9.94124 87.2925 10.3691 87.2925 10.8955V14H86.0303V8.05957H87.0186L87.1851 9.10693H87.2495C87.4465 8.75244 87.7025 8.47135 88.0176 8.26367C88.3363 8.05599 88.6782 7.95215 89.0435 7.95215ZM94.4951 14L94.2427 13.1729H94.1997C93.9132 13.5345 93.625 13.7816 93.335 13.9141C93.0449 14.043 92.6725 14.1074 92.2178 14.1074C91.6341 14.1074 91.1776 13.9499 90.8481 13.6348C90.5223 13.3197 90.3594 12.8739 90.3594 12.2974C90.3594 11.6851 90.5868 11.2231 91.0415 10.9116C91.4963 10.6001 92.1891 10.43 93.1201 10.4014L94.146 10.3691V10.0522C94.146 9.67269 94.0565 9.38981 93.8774 9.20361C93.702 9.01383 93.4281 8.91895 93.0557 8.91895C92.7513 8.91895 92.4595 8.9637 92.1802 9.05322C91.9009 9.14274 91.6323 9.24837 91.3745 9.37012L90.9663 8.46777C91.2886 8.29948 91.6413 8.17236 92.0244 8.08643C92.4076 7.99691 92.7692 7.95215 93.1094 7.95215C93.8649 7.95215 94.4342 8.11686 94.8174 8.44629C95.2041 8.77572 95.3975 9.29313 95.3975 9.99854V14H94.4951ZM92.6152 13.1406C93.0736 13.1406 93.4406 13.0135 93.7163 12.7593C93.9956 12.5015 94.1353 12.1416 94.1353 11.6797V11.1641L93.3726 11.1963C92.7782 11.2178 92.3449 11.318 92.0728 11.4971C91.8042 11.6725 91.6699 11.9429 91.6699 12.3081C91.6699 12.5731 91.7487 12.779 91.9062 12.9258C92.0638 13.069 92.3001 13.1406 92.6152 13.1406ZM102.176 8.05957V8.75244L101.161 8.94043C101.254 9.06576 101.331 9.21973 101.392 9.40234C101.452 9.58496 101.483 9.77832 101.483 9.98242C101.483 10.5947 101.272 11.0763 100.849 11.4272C100.427 11.7782 99.8447 11.9536 99.1035 11.9536C98.9137 11.9536 98.7419 11.9393 98.5879 11.9106C98.3158 12.0789 98.1797 12.2759 98.1797 12.5015C98.1797 12.6375 98.2424 12.7396 98.3677 12.8076C98.4966 12.8757 98.7311 12.9097 99.0713 12.9097H100.108C100.763 12.9097 101.261 13.0493 101.601 13.3286C101.941 13.6079 102.111 14.0107 102.111 14.5371C102.111 15.2103 101.834 15.7295 101.279 16.0947C100.724 16.46 99.9217 16.6426 98.8726 16.6426C98.0633 16.6426 97.4456 16.4993 97.0195 16.2129C96.5934 15.9264 96.3804 15.5182 96.3804 14.9883C96.3804 14.623 96.495 14.3151 96.7241 14.0645C96.9569 13.8174 97.2809 13.6455 97.6963 13.5488C97.528 13.4772 97.3883 13.3626 97.2773 13.2051C97.1699 13.0439 97.1162 12.8757 97.1162 12.7002C97.1162 12.4782 97.1789 12.2902 97.3042 12.1362C97.4295 11.9823 97.6157 11.8301 97.8628 11.6797C97.5549 11.5472 97.3042 11.3324 97.1108 11.0352C96.9211 10.7344 96.8262 10.3835 96.8262 9.98242C96.8262 9.33789 97.0285 8.83838 97.4331 8.48389C97.8413 8.12939 98.4214 7.95215 99.1733 7.95215C99.3416 7.95215 99.5171 7.96468 99.6997 7.98975C99.8859 8.01123 100.026 8.03451 100.119 8.05957H102.176ZM97.5083 14.9238C97.5083 15.196 97.63 15.4054 97.8735 15.5522C98.1206 15.6991 98.4661 15.7725 98.9102 15.7725C99.5977 15.7725 100.11 15.674 100.446 15.4771C100.783 15.2801 100.951 15.0187 100.951 14.6929C100.951 14.4351 100.858 14.2507 100.672 14.1396C100.489 14.0322 100.147 13.9785 99.646 13.9785H98.6899C98.3283 13.9785 98.04 14.0627 97.8252 14.231C97.6139 14.4028 97.5083 14.6338 97.5083 14.9238ZM98.0508 9.98242C98.0508 10.3548 98.1457 10.6413 98.3354 10.8418C98.5288 11.0423 98.8045 11.1426 99.1626 11.1426C99.8931 11.1426 100.258 10.7523 100.258 9.97168C100.258 9.58496 100.167 9.28776 99.9844 9.08008C99.8053 8.86882 99.5314 8.76318 99.1626 8.76318C98.7974 8.76318 98.5199 8.86702 98.3301 9.07471C98.1439 9.28239 98.0508 9.58496 98.0508 9.98242ZM105.876 14.1074C104.953 14.1074 104.229 13.8389 103.707 13.3018C103.187 12.7611 102.928 12.0181 102.928 11.0728C102.928 10.1024 103.169 9.33968 103.653 8.78467C104.136 8.22965 104.8 7.95215 105.646 7.95215C106.43 7.95215 107.049 8.19027 107.504 8.6665C107.959 9.14274 108.186 9.79801 108.186 10.6323V11.3145H104.228C104.245 11.891 104.401 12.335 104.695 12.6465C104.988 12.9544 105.402 13.1084 105.936 13.1084C106.286 13.1084 106.612 13.0762 106.913 13.0117C107.217 12.9437 107.543 12.8327 107.891 12.6787V13.7046C107.583 13.8514 107.271 13.9552 106.956 14.0161C106.641 14.077 106.281 14.1074 105.876 14.1074ZM105.646 8.9082C105.244 8.9082 104.922 9.03532 104.679 9.28955C104.439 9.54378 104.296 9.91439 104.249 10.4014H106.945C106.938 9.91081 106.82 9.5402 106.591 9.28955C106.362 9.03532 106.047 8.9082 105.646 8.9082Z" fill="white"/>
<path d="M14.3272 12.8346C14.3272 13.1603 14.3618 13.4243 14.4223 13.618C14.4915 13.8116 14.578 14.0229 14.699 14.2517C14.7423 14.3221 14.7596 14.3926 14.7596 14.4542C14.7596 14.5422 14.7077 14.6302 14.5953 14.7182L14.0505 15.0879C13.9726 15.1407 13.8948 15.1671 13.8256 15.1671C13.7392 15.1671 13.6527 15.1231 13.5662 15.0439C13.4452 14.9119 13.3414 14.771 13.2549 14.6302C13.1684 14.4806 13.082 14.3133 12.9869 14.1109C12.3124 14.9207 11.4649 15.3256 10.4446 15.3256C9.71818 15.3256 9.13881 15.1143 8.71509 14.6918C8.29138 14.2693 8.0752 13.706 8.0752 13.0018C8.0752 12.2537 8.33461 11.6463 8.8621 11.1886C9.38958 10.7309 10.09 10.5021 10.9807 10.5021C11.2747 10.5021 11.5773 10.5285 11.8973 10.5725C12.2172 10.6165 12.5458 10.6869 12.8917 10.7661V10.1236C12.8917 9.45465 12.7534 8.98814 12.4853 8.71528C12.2086 8.44242 11.7416 8.31039 11.0758 8.31039C10.7731 8.31039 10.4618 8.3456 10.1419 8.42482C9.82195 8.50403 9.51065 8.60086 9.20799 8.72408C9.06963 8.7857 8.96587 8.82091 8.90534 8.83851C8.8448 8.85611 8.80157 8.86492 8.76698 8.86492C8.64592 8.86492 8.58539 8.7769 8.58539 8.59205V8.16076C8.58539 8.01992 8.60268 7.9143 8.64592 7.85269C8.68915 7.79107 8.76698 7.72946 8.88804 7.66785C9.1907 7.50941 9.55388 7.37738 9.9776 7.27176C10.4013 7.15733 10.851 7.10452 11.3266 7.10452C12.3556 7.10452 13.1079 7.34217 13.5922 7.81748C14.0678 8.29279 14.3099 9.01455 14.3099 9.98277V12.8346H14.3272ZM10.8164 14.1725C11.1017 14.1725 11.3958 14.1197 11.7071 14.0141C12.0184 13.9085 12.2951 13.7148 12.5285 13.4507C12.6669 13.2835 12.7707 13.0987 12.8226 12.8874C12.8744 12.6762 12.909 12.4209 12.909 12.1216V11.752C12.6583 11.6904 12.3902 11.6375 12.1135 11.6023C11.8368 11.5671 11.5687 11.5495 11.3006 11.5495C10.7213 11.5495 10.2975 11.6639 10.0122 11.9016C9.72683 12.1393 9.58847 12.4737 9.58847 12.9138C9.58847 13.3275 9.69224 13.6356 9.90842 13.8468C10.116 14.0669 10.4186 14.1725 10.8164 14.1725ZM17.7602 15.1231C17.6045 15.1231 17.5007 15.0967 17.4316 15.0351C17.3624 14.9823 17.3019 14.8591 17.25 14.6918L15.2179 7.88789C15.166 7.71186 15.14 7.59743 15.14 7.53582C15.14 7.39498 15.2092 7.31577 15.3476 7.31577H16.195C16.3593 7.31577 16.4717 7.34217 16.5322 7.40379C16.6014 7.4566 16.6533 7.57983 16.7052 7.74706L18.1579 13.574L19.5069 7.74706C19.5501 7.57102 19.602 7.4566 19.6712 7.40379C19.7404 7.35097 19.8615 7.31577 20.0171 7.31577H20.7089C20.8732 7.31577 20.9856 7.34217 21.0548 7.40379C21.124 7.4566 21.1845 7.57983 21.2191 7.74706L22.5853 13.6444L24.0813 7.74706C24.1332 7.57102 24.1937 7.4566 24.2543 7.40379C24.3235 7.35097 24.4359 7.31577 24.5915 7.31577H25.3957C25.5341 7.31577 25.6119 7.38618 25.6119 7.53582C25.6119 7.57983 25.6033 7.62384 25.5946 7.67665C25.586 7.72946 25.5687 7.79987 25.5341 7.8967L23.4501 14.7006C23.3982 14.8767 23.3377 14.9911 23.2685 15.0439C23.1993 15.0967 23.0869 15.1319 22.9399 15.1319H22.1962C22.0319 15.1319 21.9195 15.1055 21.8503 15.0439C21.7811 14.9823 21.7206 14.8679 21.686 14.6918L20.3457 9.01455L19.014 14.683C18.9708 14.8591 18.9189 14.9735 18.8497 15.0351C18.7805 15.0967 18.6595 15.1231 18.5038 15.1231H17.7602ZM28.8719 15.3608C28.4223 15.3608 27.9726 15.308 27.5402 15.2023C27.1079 15.0967 26.7706 14.9823 26.5458 14.8503C26.4074 14.771 26.3123 14.683 26.2777 14.6038C26.2432 14.5246 26.2259 14.4366 26.2259 14.3574V13.9085C26.2259 13.7236 26.295 13.6356 26.4247 13.6356C26.4766 13.6356 26.5285 13.6444 26.5804 13.662C26.6323 13.6796 26.7101 13.7148 26.7966 13.75C27.0906 13.882 27.4105 13.9877 27.7478 14.0581C28.0937 14.1285 28.4309 14.1637 28.7768 14.1637C29.3216 14.1637 29.7453 14.0669 30.0393 13.8732C30.3333 13.6796 30.489 13.3979 30.489 13.0371C30.489 12.7906 30.4111 12.5882 30.2555 12.4209C30.0998 12.2537 29.8058 12.104 29.3821 11.9632L28.1283 11.5671C27.497 11.3647 27.0301 11.0654 26.7447 10.6693C26.4593 10.282 26.3123 9.85074 26.3123 9.39303C26.3123 9.02335 26.3902 8.69768 26.5458 8.41601C26.7015 8.13435 26.909 7.88789 27.1684 7.69425C27.4278 7.49181 27.7218 7.34217 28.0677 7.23655C28.4136 7.13092 28.7768 7.08691 29.1573 7.08691C29.3475 7.08691 29.5464 7.09572 29.7367 7.12212C29.9355 7.14853 30.1171 7.18374 30.2987 7.21894C30.4717 7.26295 30.636 7.30696 30.7916 7.35978C30.9473 7.41259 31.0683 7.4654 31.1548 7.51821C31.2759 7.58863 31.3623 7.65904 31.4142 7.73826C31.4661 7.80868 31.4921 7.9055 31.4921 8.02873V8.44242C31.4921 8.62726 31.4229 8.72408 31.2932 8.72408C31.224 8.72408 31.1116 8.68888 30.9646 8.61846C30.4717 8.38961 29.9182 8.27518 29.3043 8.27518C28.8114 8.27518 28.4223 8.3544 28.1542 8.52164C27.8861 8.68888 27.7478 8.94413 27.7478 9.30501C27.7478 9.55147 27.8343 9.76272 28.0072 9.92996C28.1801 10.0972 28.5001 10.2644 28.9584 10.4141L30.1863 10.8102C30.8089 11.0126 31.2586 11.2943 31.5266 11.6551C31.7947 12.016 31.9244 12.4297 31.9244 12.8874C31.9244 13.2659 31.8466 13.6092 31.6996 13.9085C31.5439 14.2077 31.3364 14.4718 31.0683 14.683C30.8003 14.9031 30.4803 15.0615 30.1085 15.1759C29.7194 15.2992 29.3129 15.3608 28.8719 15.3608Z" fill="white"/>
<path fill-rule="evenodd" clip-rule="evenodd" d="M30.5061 19.6386C27.6611 21.7774 23.5277 22.9129 19.9737 22.9129C14.9929 22.9129 10.5049 21.0381 7.11518 17.9222C6.84712 17.6757 7.08924 17.3412 7.40919 17.5349C11.0756 19.7002 15.5982 21.0117 20.2764 21.0117C23.4326 21.0117 26.9002 20.3427 30.091 18.9696C30.5666 18.7496 30.9731 19.2865 30.5061 19.6386Z" fill="#FF9900"/>
<path fill-rule="evenodd" clip-rule="evenodd" d="M31.6908 18.2655C31.3276 17.7902 29.2868 18.0367 28.3616 18.1511C28.0849 18.1863 28.0416 17.9399 28.2924 17.755C29.9181 16.5932 32.5901 16.9276 32.9014 17.3149C33.2127 17.711 32.8149 20.4308 31.293 21.7335C31.0595 21.936 30.8347 21.8304 30.9385 21.5663C31.2844 20.6949 32.054 18.7321 31.6908 18.2655Z" fill="#FF9900"/>
</svg>
